<svg width="85" height="90" viewBox="0 0 85 90" fill="none" xmlns="http://www.w3.org/2000/svg">
<path d="M15.4204 64.5698L11.5004 88.0098H83.3404L71.8004 19.0098H23.0404L18.7004 44.9398" stroke="#E20612" stroke-width="2.5" stroke-linecap="round" stroke-linejoin="round"/>
<path d="M71.8004 19.0098L63.9904 87.7998L74.4704 78.6998L83.3404 88.0098L71.8004 19.0098Z" fill="#E20612" stroke="#E20612" stroke-width="2.5" stroke-linecap="round" stroke-linejoin="round"/>
<path d="M13.6504 79.77H64.2404" stroke="#E20612" stroke-width="2.5" stroke-linecap="round" stroke-linejoin="round"/>
<path d="M56.6804 31.02V15.28C56.6804 7.94 50.7304 2 43.4004 2C36.0604 2 30.1204 7.95 30.1204 15.28V31.02" stroke="#E20612" stroke-width="2.5" stroke-linecap="round" stroke-linejoin="round"/>
<path d="M64.6604 18.55V15.28C64.6604 7.94 58.7104 2 51.3804 2C44.0404 2 38.1004 7.95 38.1004 15.28V18.55" stroke="#E20612" stroke-width="2.5" stroke-linecap="round" stroke-linejoin="round"/>
<path d="M21.5804 51.69L34.2604 44.02" stroke="#E20612" stroke-width="2.5" stroke-linecap="round" stroke-linejoin="round"/>
<path d="M28.7404 47.43L18.1904 44.98L1.50043 55.07L9.25043 67.9L25.9504 57.8L28.7404 47.43Z" stroke="#E20612" stroke-width="2.5" stroke-linecap="round" stroke-linejoin="round"/>
<path d="M7.00232 51.7486L1.5 55.0757L9.25627 67.903L14.7586 64.5759L7.00232 51.7486Z" fill="#E20612" stroke="#E20612" stroke-width="2.5" stroke-linecap="round" stroke-linejoin="round"/>
</svg>
